<?xml version="1.0" encoding="utf-8"?>
<!-- Generator: Adobe Illustrator 21.0.2, SVG Export Plug-In . SVG Version: 6.00 Build 0)  -->
<svg version="1.1" id="Layer_1" xmlns="http://www.w3.org/2000/svg" xmlns:xlink="http://www.w3.org/1999/xlink" x="0px" y="0px"
	 viewBox="0 0 1280 1024" style="enable-background:new 0 0 1280 1024;" xml:space="preserve">
<style type="text/css">
	.st0{fill:#F6C2A0;}
	.st1{fill:#EB8478;}
	.st2{fill:#ECEBEB;}
	.st3{fill:#7FC4C4;stroke:#FFFFFF;stroke-miterlimit:10;}
	.st4{fill:#E23B49;}
	.st5{fill:#AFC562;}
	.st6{fill:#317635;stroke:#FFFFFF;stroke-miterlimit:10;}
	.st7{fill:#EBEAE9;}
	.st8{fill:#282A29;}
	.st9{fill:#F1F1F1;}
	.st10{fill:#57AA5E;}
	.st11{fill:none;stroke:#FFFFFF;stroke-width:4;stroke-miterlimit:10;}
</style>
<g>
	<path class="st0" d="M521.7,658.7c-0.3,0-0.8,0-1,0.2c-4,3.6-8.5,2.4-12.4,0.6c-6.5-2.9-11.5-1-17.2,2.4
		c-17,10.3-34.4,20-51.6,29.9c-15.9,9.2-31.8,18.3-47.6,27.5c-4.3,2.5-4.3,2.6-6.7-1.6c-6.1-10.4-12-20.8-18.1-31.2
		c-1.2-2-0.8-2.9,1.1-3.9c12.7-7.3,25.5-14.6,38.2-21.9c14.7-8.5,29.4-17,44.1-25.5c6.9-4,13.8-8.2,20.8-12c2.8-1.5,4.9-3.3,5.1-6.6
		c0.1-1.2,0.6-2.3,0.9-3.4c-0.2-0.4-0.3-0.8-0.3-1.2c2.7-11.3,5.9-22.4,8.9-33.6c1-3.6,4.5-4.3,7.4-5.6c1.8,0.4,2.6,2.1,3.7,3.3
		c2.4,2.8,4.7,5.6,7.1,8.4c0.9,1.1,1.7,1.4,3,0.6c13-7.5,26.1-14.9,38.9-22.6c1.5-0.8,3-1.7,4.5-2.5c4.1-2.1,8.9-1.6,11.9,1.4
		c3.1,3.1,3.6,7.8,1.3,12.1c-0.2,0.3-0.4,0.5-0.3,0.9c7.8,1.7,11.2,8.9,7,15.8c0.4,0.7,1.2,0.6,1.8,0.8c6.1,2,8.7,7.9,6,13.7
		c-0.6,1.3-0.6,1.8,0.9,2.3c3.8,1.2,6.4,3.6,7,7.7c0.6,4.1-0.8,7.4-4.2,9.8c-10.3,5.6-20.2,11.8-30.5,17.4
		c-9.6,5.6-19.2,11.4-29,16.7C522.2,658.4,521.9,658.6,521.7,658.7z"/>
	<path class="st1" d="M420.3,513.6c-1.4-3.1-3.6-5.9-4.2-9.5c-0.6-4.3,0.5-8,2.9-11.5c0.4-0.6,0.9-1.2,1-2c0.2-0.3,0.4-0.6,0.7-0.8
		c6.5-4.5,13.6-8.2,20.4-12.1c17.3-10,34.6-20.1,52-30c0.9-0.5,1.8-1.3,3.1-1c2.1,2,3.1,4.8,4.6,7.3c5.8,9.9,11.6,19.8,17.2,29.8
		c0,0.3,0,0.5-0.2,0.7c-26.1,15.1-52.2,30.1-78.3,45.2c-2.4,1.4-4.8,3-7.4,4c-1-0.1-1.3-1-1.8-1.7c-3.2-5.5-6.4-11-9.6-16.6
		C420.5,514.9,420.1,514.3,420.3,513.6z"/>
	<path class="st2" d="M420.3,513.6c3.7,6.3,7.4,12.7,11.1,19c0.2,0.4,0.5,0.7,0.7,1c1.9,1.1,2.4,3.2,3.4,4.9
		c2.2,3.7,4.4,7.5,6.5,11.2c0.6,0.9,1.2,1.9,1.1,3c-0.3,1-1,1.3-2,1.4c-0.1,0-0.2,0-0.4,0c-9.1,2.8-15.8-1.8-19.6-8.9
		c-1.7-3.1-3.5-6.2-5.4-9.3c-3.8-6.4-4-12.6,0.4-18.9C417.4,515.6,419,514.8,420.3,513.6z"/>
	<path class="st3" d="M747,420.1"/>
	<path class="st4" d="M577.7,332.1c-0.3-1.8-1.5-3.2-2.4-4.7c-5.4-9.4-2.3-21.1,7.1-26.5c9.2-5.3,20.8-2.2,26.2,7.2
		c4.4,7.6,8.8,15.2,13.2,22.8c0.3,0.4,8.2,13.1,8.6,13.9c0.7,1.2,1.4,2.3,2.1,3.5c0.8,1.8,13.2,24,18.6,33.3
		c1.8,3.2,3.4,6.5,5.7,9.4c2.9,3.6,4.7,7.8,7.2,11.7c1.5,2.4,2.9,5,4.3,7.5c0.2,0.4,0.3,0.9,0.3,1.4c5.1,9,10.2,17.9,15.4,26.9
		c10.4,18.1,20.9,36.1,31.2,54.1c5.4,9.5,2.3,21.2-7,26.5c-9.3,5.3-20.8,2.1-26.4-7.3c-3-5.1-6-10.1-9-15.2c-3-3.4-4.9-7.5-7.1-11.4
		c-11.2-19.3-22.3-38.7-33.5-58c-1.5-2.6-2.9-5.2-4.5-7.7c-14.5-25.5-29.3-50.8-44-76.2c-0.5-1-1.1-2.1-1.8-3
		c-0.2-0.3-0.4-0.6-0.5-0.9C580.3,336.8,578.2,334.9,577.7,332.1z"/>
	<path class="st5" d="M668.6,411.6c-0.4-0.3-0.6-0.7-0.6-1.2c-0.9-3.1-1.3-6.3-2.5-9.3c-0.2-0.5-0.3-1,0.1-1.4"/>
	<path class="st6" d="M747.2,420.8"/>
	<path class="st7" d="M665.5,399.7c1.5,3.4,2.6,6.9,2.4,10.7c-4-6.3-7.8-12.8-11.1-19.4c3.2,0.8,4.9,3.4,6.8,5.7
		C664.4,397.7,664.9,398.7,665.5,399.7z"/>
	<path class="st8" d="M526,528.5c6.1,10.5,12.2,21,18.3,31.6c0.6,1,1.1,1.9,1.7,2.9c-0.5,0.8-1.3,1-2.1,1.5
		c-12.2,7-24.4,14-36.5,21.1c-1.9,1.1-2.8,0.8-4.1-0.8c-3.2-4-6.6-7.8-9.9-11.7c-1.4-0.6-2.2-1.8-3.1-2.9c-1.2-1.5-2.4-1.9-4.1-0.8
		c-1.8,1.2-3.8,2.3-5.8,3.3c-4.7,2.4-9.4,1-12-3.6c-1-1.9-2.4-3.5-2.9-5.7c0.1-1.2,1.1-1.6,2-2.1c12.2-7,24.3-14.1,36.5-21.1
		c6.5-3.7,13-7.5,19.5-11.2C524.5,528.5,525.1,527.7,526,528.5z"/>
	<path class="st8" d="M581.3,623.9c2.3,4.1,4.7,8.1,7,12.2c2.6,4.7,1.6,8.8-3.1,11.5c-4.5,2.6-9,5.2-13.5,7.8
		c-4,2.2-7.6,1.6-10.5-1.9c-3.4-4-6.8-8.1-10.1-12.2C561.1,635.3,571.1,629.5,581.3,623.9z"/>
	<path class="st9" d="M584.1,342.8c5.4,9.2,10.8,18.4,16.1,27.6c9.1,15.7,18.1,31.3,27.1,47c0.3,0.5,0.5,1.1,0.7,1.6
		c0.7,1.8-0.9,2.2-1.9,2.8c-7.3,4.3-14.6,8.5-21.9,12.7c-24.8,14.3-49.5,28.6-74.3,42.9c-3.3,1.9-6.6,3.9-10,5.7
		c-0.7,0.4-1.4,1.1-2.3,0.7c-4-6.8-8-13.6-12-20.4c-3.2-5.5-6.3-11.1-9.5-16.6c7.8-5,15.7-10,23-15.7c11.5-9,22.1-19,31.3-30.4
		c0.9-1.1,1.8-2.1,2.6-3.1c-0.1-0.5,0.1-0.9,0.3-1.4c3.6-4.7,7-9.4,10.2-14.4c6.5-9.9,12.1-20.3,16.7-31.2c0.7-1.8,1.7-3.6,2.2-5.5
		C582.9,344.4,583,343.3,584.1,342.8z"/>
	<path class="st2" d="M517.6,483.9c8.6-5,17.2-10,25.8-15c9.4-5.4,18.9-10.9,28.3-16.3c9.6-5.5,19.2-11,28.8-16.6
		c8.8-5.1,17.5-10.2,26.3-15.2c0.7-0.4,1.2-0.9,1.3-1.8c4.5,7.7,9.1,15.4,13.5,23.2c10,17.2,19.9,34.4,29.8,51.6
		c0.5,0.9,0.9,1.8,1.4,2.7c-4.9-0.7-9.8-1.4-14.6-1.9c-8.4-0.9-16.9-0.7-25.3-0.6c-16.9,0.3-33.3,3.1-49.5,7.8
		c-14,4.1-27.3,9.5-40.1,16.6c-1.6,0.9-3.2,1.6-4.8,2.4c-1-0.1-1.2-1.1-1.7-1.8c-6.3-10.7-12.5-21.5-18.6-32.3
		c-0.4-0.7-1-1.4-0.6-2.3C517.7,484.3,517.7,484.1,517.6,483.9z"/>
	<path class="st4" d="M517.6,484.4c7,12.1,13.9,24.3,20.9,36.4c-3.6,2.2-7.2,4.4-10.9,6.5c-0.6,0.3-1.1,0.8-1.6,1.1
		c-3.8,1.6-7.2,4-10.8,6c-11.8,6.6-23.4,13.5-35,20.2c-4.8,2.8-9.5,5.6-14.3,8.4c-4.1,1.7-8.3,2.3-12.6,0.6
		c-3.8-1.5-6.5-4.1-8.4-7.8c-0.5-1-1.3-2-1.9-3c-3.7-6.5-7.3-12.9-11-19.4c3.4-2.8,7.5-4.7,11.3-6.9c16.2-9.5,32.6-18.9,48.8-28.3
		c7.8-4.5,15.6-9,23.4-13.5C516.3,484.6,516.9,484.3,517.6,484.4z"/>
	<path class="st10" d="M581.9,339.2c0.1,0.2,0.3,0.4,0.4,0.6"/>
	<line class="st11" x1="659" y1="324.7" x2="724.9" y2="216.5"/>
	<line class="st11" x1="710.8" y1="374.1" x2="830.8" y2="280"/>
	<line class="st11" x1="868.4" y1="425.9" x2="739" y2="432.9"/>
</g>
</svg>
